<svg width="354" height="356" viewBox="0 0 354 356" fill="none" xmlns="http://www.w3.org/2000/svg">
<rect x="353.217" width="4.95182" height="4.95182" transform="rotate(90 353.217 0)" fill="#385FF6" fill-opacity="0.2"/>
<rect x="353.217" y="31.8545" width="4.95182" height="4.95182" transform="rotate(90 353.217 31.8545)" fill="#385FF6" fill-opacity="0.2"/>
<rect x="353.217" y="63.709" width="4.95182" height="4.95182" transform="rotate(90 353.217 63.709)" fill="#385FF6" fill-opacity="0.2"/>
<rect x="353.217" y="95.5635" width="4.95182" height="4.95182" transform="rotate(90 353.217 95.5635)" fill="#385FF6" fill-opacity="0.2"/>
<rect x="353.217" y="127.418" width="4.95182" height="4.95182" transform="rotate(90 353.217 127.418)" fill="#385FF6" fill-opacity="0.2"/>
<rect x="353.217" y="159.272" width="4.95182" height="4.95182" transform="rotate(90 353.217 159.272)" fill="#385FF6" fill-opacity="0.2"/>
<rect x="353.217" y="191.126" width="4.95182" height="4.95182" transform="rotate(90 353.217 191.126)" fill="#385FF6" fill-opacity="0.2"/>
<rect x="353.217" y="222.981" width="4.95182" height="4.95182" transform="rotate(90 353.217 222.981)" fill="#385FF6" fill-opacity="0.2"/>
<rect x="353.217" y="254.835" width="4.95182" height="4.95182" transform="rotate(90 353.217 254.835)" fill="#385FF6" fill-opacity="0.2"/>
<rect x="353.217" y="286.69" width="4.95182" height="4.95182" transform="rotate(90 353.217 286.69)" fill="#385FF6" fill-opacity="0.2"/>
<rect x="353.217" y="318.544" width="4.95182" height="4.95182" transform="rotate(90 353.217 318.544)" fill="#385FF6" fill-opacity="0.2"/>
<rect x="353.217" y="350.399" width="4.95182" height="4.95182" transform="rotate(90 353.217 350.399)" fill="#385FF6" fill-opacity="0.2"/>
<rect x="331.45" width="4.95182" height="4.95182" transform="rotate(90 331.45 0)" fill="#385FF6" fill-opacity="0.2"/>
<rect x="331.45" y="31.8545" width="4.95182" height="4.95182" transform="rotate(90 331.45 31.8545)" fill="#385FF6" fill-opacity="0.2"/>
<rect x="331.45" y="63.709" width="4.95182" height="4.95182" transform="rotate(90 331.45 63.709)" fill="#385FF6" fill-opacity="0.2"/>
<rect x="331.45" y="95.5635" width="4.95182" height="4.95182" transform="rotate(90 331.45 95.5635)" fill="#385FF6" fill-opacity="0.2"/>
<rect x="331.45" y="127.418" width="4.95182" height="4.95182" transform="rotate(90 331.45 127.418)" fill="#385FF6" fill-opacity="0.2"/>
<rect x="331.45" y="159.272" width="4.95182" height="4.95182" transform="rotate(90 331.45 159.272)" fill="#385FF6" fill-opacity="0.2"/>
<rect x="331.45" y="191.126" width="4.95182" height="4.95182" transform="rotate(90 331.45 191.126)" fill="#385FF6" fill-opacity="0.2"/>
<rect x="331.45" y="222.981" width="4.95182" height="4.95182" transform="rotate(90 331.45 222.981)" fill="#385FF6" fill-opacity="0.2"/>
<rect x="331.45" y="254.835" width="4.95182" height="4.95182" transform="rotate(90 331.45 254.835)" fill="#385FF6" fill-opacity="0.2"/>
<rect x="331.45" y="286.69" width="4.95182" height="4.95182" transform="rotate(90 331.45 286.69)" fill="#385FF6" fill-opacity="0.2"/>
<rect x="331.45" y="318.544" width="4.95182" height="4.95182" transform="rotate(90 331.45 318.544)" fill="#385FF6" fill-opacity="0.2"/>
<rect x="331.45" y="350.399" width="4.95182" height="4.95182" transform="rotate(90 331.45 350.399)" fill="#385FF6" fill-opacity="0.2"/>
<rect x="309.682" width="4.95182" height="4.95182" transform="rotate(90 309.682 0)" fill="#385FF6" fill-opacity="0.2"/>
<rect x="309.682" y="31.8545" width="4.95182" height="4.95182" transform="rotate(90 309.682 31.8545)" fill="#385FF6" fill-opacity="0.2"/>
<rect x="309.682" y="63.709" width="4.95182" height="4.95182" transform="rotate(90 309.682 63.709)" fill="#385FF6" fill-opacity="0.2"/>
<rect x="309.682" y="95.5635" width="4.95182" height="4.95182" transform="rotate(90 309.682 95.5635)" fill="#385FF6" fill-opacity="0.2"/>
<rect x="309.682" y="127.418" width="4.95182" height="4.95182" transform="rotate(90 309.682 127.418)" fill="#385FF6" fill-opacity="0.2"/>
<rect x="309.682" y="159.272" width="4.95182" height="4.95182" transform="rotate(90 309.682 159.272)" fill="#385FF6" fill-opacity="0.2"/>
<rect x="309.682" y="191.126" width="4.95182" height="4.95182" transform="rotate(90 309.682 191.126)" fill="#385FF6" fill-opacity="0.2"/>
<rect x="309.682" y="222.981" width="4.95182" height="4.95182" transform="rotate(90 309.682 222.981)" fill="#385FF6" fill-opacity="0.2"/>
<rect x="309.682" y="254.835" width="4.95182" height="4.95182" transform="rotate(90 309.682 254.835)" fill="#385FF6" fill-opacity="0.2"/>
<rect x="309.682" y="286.69" width="4.95182" height="4.95182" transform="rotate(90 309.682 286.69)" fill="#385FF6" fill-opacity="0.2"/>
<rect x="309.682" y="318.544" width="4.95182" height="4.95182" transform="rotate(90 309.682 318.544)" fill="#385FF6" fill-opacity="0.2"/>
<rect x="309.682" y="350.399" width="4.95182" height="4.95182" transform="rotate(90 309.682 350.399)" fill="#385FF6" fill-opacity="0.2"/>
<rect x="287.917" width="4.95182" height="4.95182" transform="rotate(90 287.917 0)" fill="#385FF6" fill-opacity="0.2"/>
<rect x="287.917" y="31.8545" width="4.95182" height="4.95182" transform="rotate(90 287.917 31.8545)" fill="#385FF6" fill-opacity="0.2"/>
<rect x="287.917" y="63.709" width="4.95182" height="4.95182" transform="rotate(90 287.917 63.709)" fill="#385FF6" fill-opacity="0.2"/>
<rect x="287.917" y="95.5635" width="4.95182" height="4.95182" transform="rotate(90 287.917 95.5635)" fill="#385FF6" fill-opacity="0.2"/>
<rect x="287.917" y="127.418" width="4.95182" height="4.95182" transform="rotate(90 287.917 127.418)" fill="#385FF6" fill-opacity="0.2"/>
<rect x="287.917" y="159.272" width="4.95182" height="4.95182" transform="rotate(90 287.917 159.272)" fill="#385FF6" fill-opacity="0.2"/>
<rect x="287.917" y="191.126" width="4.95182" height="4.95182" transform="rotate(90 287.917 191.126)" fill="#385FF6" fill-opacity="0.2"/>
<rect x="287.917" y="222.981" width="4.95182" height="4.95182" transform="rotate(90 287.917 222.981)" fill="#385FF6" fill-opacity="0.2"/>
<rect x="287.917" y="254.835" width="4.95182" height="4.95182" transform="rotate(90 287.917 254.835)" fill="#385FF6" fill-opacity="0.2"/>
<rect x="287.917" y="286.69" width="4.95182" height="4.95182" transform="rotate(90 287.917 286.69)" fill="#385FF6" fill-opacity="0.2"/>
<rect x="287.917" y="318.544" width="4.95182" height="4.95182" transform="rotate(90 287.917 318.544)" fill="#385FF6" fill-opacity="0.2"/>
<rect x="287.917" y="350.399" width="4.95182" height="4.95182" transform="rotate(90 287.917 350.399)" fill="#385FF6" fill-opacity="0.2"/>
<rect x="266.15" width="4.95182" height="4.95182" transform="rotate(90 266.15 0)" fill="#385FF6" fill-opacity="0.2"/>
<rect x="266.15" y="31.8545" width="4.95182" height="4.95182" transform="rotate(90 266.15 31.8545)" fill="#385FF6" fill-opacity="0.2"/>
<rect x="266.15" y="63.709" width="4.95182" height="4.95182" transform="rotate(90 266.15 63.709)" fill="#385FF6" fill-opacity="0.2"/>
<rect x="266.15" y="95.5635" width="4.95182" height="4.95182" transform="rotate(90 266.15 95.5635)" fill="#385FF6" fill-opacity="0.2"/>
<rect x="266.15" y="127.418" width="4.95182" height="4.95182" transform="rotate(90 266.15 127.418)" fill="#385FF6" fill-opacity="0.2"/>
<rect x="266.15" y="159.272" width="4.95182" height="4.95182" transform="rotate(90 266.15 159.272)" fill="#385FF6" fill-opacity="0.2"/>
<rect x="266.15" y="191.126" width="4.95182" height="4.95182" transform="rotate(90 266.15 191.126)" fill="#385FF6" fill-opacity="0.2"/>
<rect x="266.15" y="222.981" width="4.95182" height="4.95182" transform="rotate(90 266.15 222.981)" fill="#385FF6" fill-opacity="0.2"/>
<rect x="266.15" y="254.835" width="4.95182" height="4.95182" transform="rotate(90 266.15 254.835)" fill="#385FF6" fill-opacity="0.2"/>
<rect x="266.15" y="286.69" width="4.95182" height="4.95182" transform="rotate(90 266.15 286.69)" fill="#385FF6" fill-opacity="0.2"/>
<rect x="266.15" y="318.544" width="4.95182" height="4.95182" transform="rotate(90 266.15 318.544)" fill="#385FF6" fill-opacity="0.2"/>
<rect x="266.15" y="350.399" width="4.95182" height="4.95182" transform="rotate(90 266.15 350.399)" fill="#385FF6" fill-opacity="0.2"/>
<rect x="244.384" width="4.95182" height="4.95182" transform="rotate(90 244.384 0)" fill="#385FF6" fill-opacity="0.2"/>
<rect x="244.384" y="31.8545" width="4.95182" height="4.95182" transform="rotate(90 244.384 31.8545)" fill="#385FF6" fill-opacity="0.2"/>
<rect x="244.384" y="63.709" width="4.95182" height="4.95182" transform="rotate(90 244.384 63.709)" fill="#385FF6" fill-opacity="0.2"/>
<rect x="244.384" y="95.5635" width="4.95182" height="4.95182" transform="rotate(90 244.384 95.5635)" fill="#385FF6" fill-opacity="0.2"/>
<rect x="244.384" y="127.418" width="4.95182" height="4.95182" transform="rotate(90 244.384 127.418)" fill="#385FF6" fill-opacity="0.2"/>
<rect x="244.384" y="159.272" width="4.95182" height="4.95182" transform="rotate(90 244.384 159.272)" fill="#385FF6" fill-opacity="0.2"/>
<rect x="244.384" y="191.126" width="4.95182" height="4.95182" transform="rotate(90 244.384 191.126)" fill="#385FF6" fill-opacity="0.2"/>
<rect x="244.384" y="222.981" width="4.95182" height="4.95182" transform="rotate(90 244.384 222.981)" fill="#385FF6" fill-opacity="0.2"/>
<rect x="244.384" y="254.835" width="4.95182" height="4.95182" transform="rotate(90 244.384 254.835)" fill="#385FF6" fill-opacity="0.2"/>
<rect x="244.384" y="286.69" width="4.95182" height="4.95182" transform="rotate(90 244.384 286.69)" fill="#385FF6" fill-opacity="0.2"/>
<rect x="244.384" y="318.544" width="4.95182" height="4.95182" transform="rotate(90 244.384 318.544)" fill="#385FF6" fill-opacity="0.2"/>
<rect x="244.384" y="350.399" width="4.95182" height="4.95182" transform="rotate(90 244.384 350.399)" fill="#385FF6" fill-opacity="0.2"/>
<rect x="222.617" width="4.95182" height="4.95182" transform="rotate(90 222.617 0)" fill="#385FF6" fill-opacity="0.2"/>
<rect x="222.617" y="31.8545" width="4.95182" height="4.95182" transform="rotate(90 222.617 31.8545)" fill="#385FF6" fill-opacity="0.2"/>
<rect x="222.617" y="63.709" width="4.95182" height="4.95182" transform="rotate(90 222.617 63.709)" fill="#385FF6" fill-opacity="0.2"/>
<rect x="222.617" y="95.5635" width="4.95182" height="4.95182" transform="rotate(90 222.617 95.5635)" fill="#385FF6" fill-opacity="0.2"/>
<rect x="222.617" y="127.418" width="4.95182" height="4.95182" transform="rotate(90 222.617 127.418)" fill="#385FF6" fill-opacity="0.2"/>
<rect x="222.617" y="159.272" width="4.95182" height="4.95182" transform="rotate(90 222.617 159.272)" fill="#385FF6" fill-opacity="0.2"/>
<rect x="222.617" y="191.126" width="4.95182" height="4.95182" transform="rotate(90 222.617 191.126)" fill="#385FF6" fill-opacity="0.2"/>
<rect x="222.617" y="222.981" width="4.95182" height="4.95182" transform="rotate(90 222.617 222.981)" fill="#385FF6" fill-opacity="0.2"/>
<rect x="222.617" y="254.835" width="4.95182" height="4.95182" transform="rotate(90 222.617 254.835)" fill="#385FF6" fill-opacity="0.2"/>
<rect x="222.617" y="286.69" width="4.95182" height="4.95182" transform="rotate(90 222.617 286.69)" fill="#385FF6" fill-opacity="0.2"/>
<rect x="222.617" y="318.544" width="4.95182" height="4.95182" transform="rotate(90 222.617 318.544)" fill="#385FF6" fill-opacity="0.2"/>
<rect x="222.617" y="350.399" width="4.95182" height="4.95182" transform="rotate(90 222.617 350.399)" fill="#385FF6" fill-opacity="0.2"/>
<rect x="200.852" width="4.95182" height="4.95182" transform="rotate(90 200.852 0)" fill="#385FF6" fill-opacity="0.2"/>
<rect x="200.852" y="31.8545" width="4.95182" height="4.95182" transform="rotate(90 200.852 31.8545)" fill="#385FF6" fill-opacity="0.2"/>
<rect x="200.852" y="63.709" width="4.95182" height="4.95182" transform="rotate(90 200.852 63.709)" fill="#385FF6" fill-opacity="0.2"/>
<rect x="200.852" y="95.5635" width="4.95182" height="4.95182" transform="rotate(90 200.852 95.5635)" fill="#385FF6" fill-opacity="0.2"/>
<rect x="200.852" y="127.418" width="4.95182" height="4.95182" transform="rotate(90 200.852 127.418)" fill="#385FF6" fill-opacity="0.2"/>
<rect x="200.852" y="159.272" width="4.95182" height="4.95182" transform="rotate(90 200.852 159.272)" fill="#385FF6" fill-opacity="0.2"/>
<rect x="200.852" y="191.126" width="4.95182" height="4.95182" transform="rotate(90 200.852 191.126)" fill="#385FF6" fill-opacity="0.2"/>
<rect x="200.852" y="222.981" width="4.95182" height="4.95182" transform="rotate(90 200.852 222.981)" fill="#385FF6" fill-opacity="0.2"/>
<rect x="200.852" y="254.835" width="4.95182" height="4.95182" transform="rotate(90 200.852 254.835)" fill="#385FF6" fill-opacity="0.2"/>
<rect x="200.852" y="286.69" width="4.95182" height="4.95182" transform="rotate(90 200.852 286.69)" fill="#385FF6" fill-opacity="0.2"/>
<rect x="200.852" y="318.544" width="4.95182" height="4.95182" transform="rotate(90 200.852 318.544)" fill="#385FF6" fill-opacity="0.2"/>
<rect x="200.852" y="350.399" width="4.95182" height="4.95182" transform="rotate(90 200.852 350.399)" fill="#385FF6" fill-opacity="0.2"/>
<rect x="179.085" width="4.95182" height="4.95182" transform="rotate(90 179.085 0)" fill="#385FF6" fill-opacity="0.2"/>
<rect x="179.085" y="31.8545" width="4.95182" height="4.95182" transform="rotate(90 179.085 31.8545)" fill="#385FF6" fill-opacity="0.2"/>
<rect x="179.085" y="63.709" width="4.95182" height="4.95182" transform="rotate(90 179.085 63.709)" fill="#385FF6" fill-opacity="0.2"/>
<rect x="179.085" y="95.5635" width="4.95182" height="4.95182" transform="rotate(90 179.085 95.5635)" fill="#385FF6" fill-opacity="0.2"/>
<rect x="179.085" y="127.418" width="4.95182" height="4.95182" transform="rotate(90 179.085 127.418)" fill="#385FF6" fill-opacity="0.2"/>
<rect x="179.085" y="159.272" width="4.95182" height="4.95182" transform="rotate(90 179.085 159.272)" fill="#385FF6" fill-opacity="0.2"/>
<rect x="179.085" y="191.126" width="4.95182" height="4.95182" transform="rotate(90 179.085 191.126)" fill="#385FF6" fill-opacity="0.2"/>
<rect x="179.085" y="222.981" width="4.95182" height="4.95182" transform="rotate(90 179.085 222.981)" fill="#385FF6" fill-opacity="0.2"/>
<rect x="179.085" y="254.835" width="4.95182" height="4.95182" transform="rotate(90 179.085 254.835)" fill="#385FF6" fill-opacity="0.2"/>
<rect x="179.085" y="286.69" width="4.95182" height="4.95182" transform="rotate(90 179.085 286.69)" fill="#385FF6" fill-opacity="0.2"/>
<rect x="179.085" y="318.544" width="4.95182" height="4.95182" transform="rotate(90 179.085 318.544)" fill="#385FF6" fill-opacity="0.2"/>
<rect x="179.085" y="350.399" width="4.95182" height="4.95182" transform="rotate(90 179.085 350.399)" fill="#385FF6" fill-opacity="0.2"/>
<rect x="157.317" width="4.95182" height="4.95182" transform="rotate(90 157.317 0)" fill="#385FF6" fill-opacity="0.2"/>
<rect x="157.317" y="31.8545" width="4.95182" height="4.95182" transform="rotate(90 157.317 31.8545)" fill="#385FF6" fill-opacity="0.2"/>
<rect x="157.317" y="63.709" width="4.95182" height="4.95182" transform="rotate(90 157.317 63.709)" fill="#385FF6" fill-opacity="0.2"/>
<rect x="157.317" y="95.5635" width="4.95182" height="4.95182" transform="rotate(90 157.317 95.5635)" fill="#385FF6" fill-opacity="0.2"/>
<rect x="157.317" y="127.418" width="4.95182" height="4.95182" transform="rotate(90 157.317 127.418)" fill="#385FF6" fill-opacity="0.2"/>
<rect x="157.317" y="159.272" width="4.95182" height="4.95182" transform="rotate(90 157.317 159.272)" fill="#385FF6" fill-opacity="0.2"/>
<rect x="157.317" y="191.126" width="4.95182" height="4.95182" transform="rotate(90 157.317 191.126)" fill="#385FF6" fill-opacity="0.2"/>
<rect x="157.317" y="222.981" width="4.95182" height="4.95182" transform="rotate(90 157.317 222.981)" fill="#385FF6" fill-opacity="0.2"/>
<rect x="157.317" y="254.835" width="4.95182" height="4.95182" transform="rotate(90 157.317 254.835)" fill="#385FF6" fill-opacity="0.2"/>
<rect x="157.317" y="286.69" width="4.95182" height="4.95182" transform="rotate(90 157.317 286.69)" fill="#385FF6" fill-opacity="0.2"/>
<rect x="157.317" y="318.544" width="4.95182" height="4.95182" transform="rotate(90 157.317 318.544)" fill="#385FF6" fill-opacity="0.2"/>
<rect x="157.317" y="350.399" width="4.95182" height="4.95182" transform="rotate(90 157.317 350.399)" fill="#385FF6" fill-opacity="0.2"/>
<rect x="135.552" width="4.95182" height="4.95182" transform="rotate(90 135.552 0)" fill="#385FF6" fill-opacity="0.2"/>
<rect x="135.552" y="31.8545" width="4.95182" height="4.95182" transform="rotate(90 135.552 31.8545)" fill="#385FF6" fill-opacity="0.2"/>
<rect x="135.552" y="63.709" width="4.95182" height="4.95182" transform="rotate(90 135.552 63.709)" fill="#385FF6" fill-opacity="0.2"/>
<rect x="135.552" y="95.5635" width="4.95182" height="4.95182" transform="rotate(90 135.552 95.5635)" fill="#385FF6" fill-opacity="0.2"/>
<rect x="135.552" y="127.418" width="4.95182" height="4.95182" transform="rotate(90 135.552 127.418)" fill="#385FF6" fill-opacity="0.2"/>
<rect x="135.552" y="159.272" width="4.95182" height="4.95182" transform="rotate(90 135.552 159.272)" fill="#385FF6" fill-opacity="0.2"/>
<rect x="135.552" y="191.126" width="4.95182" height="4.95182" transform="rotate(90 135.552 191.126)" fill="#385FF6" fill-opacity="0.2"/>
<rect x="135.552" y="222.981" width="4.95182" height="4.95182" transform="rotate(90 135.552 222.981)" fill="#385FF6" fill-opacity="0.2"/>
<rect x="135.552" y="254.835" width="4.95182" height="4.95182" transform="rotate(90 135.552 254.835)" fill="#385FF6" fill-opacity="0.2"/>
<rect x="135.552" y="286.69" width="4.95182" height="4.95182" transform="rotate(90 135.552 286.69)" fill="#385FF6" fill-opacity="0.2"/>
<rect x="135.552" y="318.544" width="4.95182" height="4.95182" transform="rotate(90 135.552 318.544)" fill="#385FF6" fill-opacity="0.2"/>
<rect x="135.552" y="350.399" width="4.95182" height="4.95182" transform="rotate(90 135.552 350.399)" fill="#385FF6" fill-opacity="0.2"/>
<rect x="113.785" width="4.95182" height="4.95182" transform="rotate(90 113.785 0)" fill="#385FF6" fill-opacity="0.2"/>
<rect x="113.785" y="31.8545" width="4.95182" height="4.95182" transform="rotate(90 113.785 31.8545)" fill="#385FF6" fill-opacity="0.2"/>
<rect x="113.785" y="63.709" width="4.95182" height="4.95182" transform="rotate(90 113.785 63.709)" fill="#385FF6" fill-opacity="0.2"/>
<rect x="113.785" y="95.5635" width="4.95182" height="4.95182" transform="rotate(90 113.785 95.5635)" fill="#385FF6" fill-opacity="0.2"/>
<rect x="113.785" y="127.418" width="4.95182" height="4.95182" transform="rotate(90 113.785 127.418)" fill="#385FF6" fill-opacity="0.2"/>
<rect x="113.785" y="159.272" width="4.95182" height="4.95182" transform="rotate(90 113.785 159.272)" fill="#385FF6" fill-opacity="0.2"/>
<rect x="113.785" y="191.126" width="4.95182" height="4.95182" transform="rotate(90 113.785 191.126)" fill="#385FF6" fill-opacity="0.2"/>
<rect x="113.785" y="222.981" width="4.95182" height="4.95182" transform="rotate(90 113.785 222.981)" fill="#385FF6" fill-opacity="0.2"/>
<rect x="113.785" y="254.835" width="4.95182" height="4.95182" transform="rotate(90 113.785 254.835)" fill="#385FF6" fill-opacity="0.2"/>
<rect x="113.785" y="286.69" width="4.95182" height="4.95182" transform="rotate(90 113.785 286.69)" fill="#385FF6" fill-opacity="0.2"/>
<rect x="113.785" y="318.544" width="4.95182" height="4.95182" transform="rotate(90 113.785 318.544)" fill="#385FF6" fill-opacity="0.2"/>
<rect x="113.785" y="350.399" width="4.95182" height="4.95182" transform="rotate(90 113.785 350.399)" fill="#385FF6" fill-opacity="0.2"/>
<rect x="92.0195" width="4.95182" height="4.95182" transform="rotate(90 92.0195 0)" fill="#385FF6" fill-opacity="0.2"/>
<rect x="92.0195" y="31.8545" width="4.95182" height="4.95182" transform="rotate(90 92.0195 31.8545)" fill="#385FF6" fill-opacity="0.2"/>
<rect x="92.0195" y="63.709" width="4.95182" height="4.95182" transform="rotate(90 92.0195 63.709)" fill="#385FF6" fill-opacity="0.2"/>
<rect x="92.0195" y="95.5635" width="4.95182" height="4.95182" transform="rotate(90 92.0195 95.5635)" fill="#385FF6" fill-opacity="0.2"/>
<rect x="92.0195" y="127.418" width="4.95182" height="4.95182" transform="rotate(90 92.0195 127.418)" fill="#385FF6" fill-opacity="0.2"/>
<rect x="92.0195" y="159.272" width="4.95182" height="4.95182" transform="rotate(90 92.0195 159.272)" fill="#385FF6" fill-opacity="0.2"/>
<rect x="92.0195" y="191.126" width="4.95182" height="4.95182" transform="rotate(90 92.0195 191.126)" fill="#385FF6" fill-opacity="0.2"/>
<rect x="92.0195" y="222.981" width="4.95182" height="4.95182" transform="rotate(90 92.0195 222.981)" fill="#385FF6" fill-opacity="0.2"/>
<rect x="92.0195" y="254.835" width="4.95182" height="4.95182" transform="rotate(90 92.0195 254.835)" fill="#385FF6" fill-opacity="0.2"/>
<rect x="92.0195" y="286.69" width="4.95182" height="4.95182" transform="rotate(90 92.0195 286.69)" fill="#385FF6" fill-opacity="0.2"/>
<rect x="92.0195" y="318.544" width="4.95182" height="4.95182" transform="rotate(90 92.0195 318.544)" fill="#385FF6" fill-opacity="0.2"/>
<rect x="92.0195" y="350.399" width="4.95182" height="4.95182" transform="rotate(90 92.0195 350.399)" fill="#385FF6" fill-opacity="0.2"/>
<rect x="70.2524" width="4.95182" height="4.95182" transform="rotate(90 70.2524 0)" fill="#385FF6" fill-opacity="0.2"/>
<rect x="70.2522" y="31.8545" width="4.95182" height="4.95182" transform="rotate(90 70.2522 31.8545)" fill="#385FF6" fill-opacity="0.2"/>
<rect x="70.2522" y="63.709" width="4.95182" height="4.95182" transform="rotate(90 70.2522 63.709)" fill="#385FF6" fill-opacity="0.2"/>
<rect x="70.2522" y="95.5635" width="4.95182" height="4.95182" transform="rotate(90 70.2522 95.5635)" fill="#385FF6" fill-opacity="0.2"/>
<rect x="70.2522" y="127.418" width="4.95182" height="4.95182" transform="rotate(90 70.2522 127.418)" fill="#385FF6" fill-opacity="0.2"/>
<rect x="70.2522" y="159.272" width="4.95182" height="4.95182" transform="rotate(90 70.2522 159.272)" fill="#385FF6" fill-opacity="0.2"/>
<rect x="70.2522" y="191.126" width="4.95182" height="4.95182" transform="rotate(90 70.2522 191.126)" fill="#385FF6" fill-opacity="0.2"/>
<rect x="70.2522" y="222.981" width="4.95182" height="4.95182" transform="rotate(90 70.2522 222.981)" fill="#385FF6" fill-opacity="0.2"/>
<rect x="70.2522" y="254.835" width="4.95182" height="4.95182" transform="rotate(90 70.2522 254.835)" fill="#385FF6" fill-opacity="0.2"/>
<rect x="70.2522" y="286.69" width="4.95182" height="4.95182" transform="rotate(90 70.2522 286.69)" fill="#385FF6" fill-opacity="0.2"/>
<rect x="70.2522" y="318.544" width="4.95182" height="4.95182" transform="rotate(90 70.2522 318.544)" fill="#385FF6" fill-opacity="0.2"/>
<rect x="70.2522" y="350.399" width="4.95182" height="4.95182" transform="rotate(90 70.2522 350.399)" fill="#385FF6" fill-opacity="0.2"/>
<rect x="48.4869" width="4.95182" height="4.95182" transform="rotate(90 48.4869 0)" fill="#385FF6" fill-opacity="0.2"/>
<rect x="48.4869" y="31.8545" width="4.95182" height="4.95182" transform="rotate(90 48.4869 31.8545)" fill="#385FF6" fill-opacity="0.2"/>
<rect x="48.4869" y="63.709" width="4.95182" height="4.95182" transform="rotate(90 48.4869 63.709)" fill="#385FF6" fill-opacity="0.2"/>
<rect x="48.4869" y="95.5635" width="4.95182" height="4.95182" transform="rotate(90 48.4869 95.5635)" fill="#385FF6" fill-opacity="0.2"/>
<rect x="48.4869" y="127.418" width="4.95182" height="4.95182" transform="rotate(90 48.4869 127.418)" fill="#385FF6" fill-opacity="0.2"/>
<rect x="48.4869" y="159.272" width="4.95182" height="4.95182" transform="rotate(90 48.4869 159.272)" fill="#385FF6" fill-opacity="0.2"/>
<rect x="48.4869" y="191.126" width="4.95182" height="4.95182" transform="rotate(90 48.4869 191.126)" fill="#385FF6" fill-opacity="0.2"/>
<rect x="48.4869" y="222.981" width="4.95182" height="4.95182" transform="rotate(90 48.4869 222.981)" fill="#385FF6" fill-opacity="0.2"/>
<rect x="48.4869" y="254.835" width="4.95182" height="4.95182" transform="rotate(90 48.4869 254.835)" fill="#385FF6" fill-opacity="0.2"/>
<rect x="48.4869" y="286.69" width="4.95182" height="4.95182" transform="rotate(90 48.4869 286.69)" fill="#385FF6" fill-opacity="0.2"/>
<rect x="48.4869" y="318.544" width="4.95182" height="4.95182" transform="rotate(90 48.4869 318.544)" fill="#385FF6" fill-opacity="0.2"/>
<rect x="48.4869" y="350.399" width="4.95182" height="4.95182" transform="rotate(90 48.4869 350.399)" fill="#385FF6" fill-opacity="0.2"/>
<rect x="26.7195" width="4.95182" height="4.95182" transform="rotate(90 26.7195 0)" fill="#385FF6" fill-opacity="0.2"/>
<rect x="26.7197" y="31.8545" width="4.95182" height="4.95182" transform="rotate(90 26.7197 31.8545)" fill="#385FF6" fill-opacity="0.2"/>
<rect x="26.7197" y="63.709" width="4.95182" height="4.95182" transform="rotate(90 26.7197 63.709)" fill="#385FF6" fill-opacity="0.2"/>
<rect x="26.7197" y="95.5635" width="4.95182" height="4.95182" transform="rotate(90 26.7197 95.5635)" fill="#385FF6" fill-opacity="0.2"/>
<rect x="26.7197" y="127.418" width="4.95182" height="4.95182" transform="rotate(90 26.7197 127.418)" fill="#385FF6" fill-opacity="0.2"/>
<rect x="26.7197" y="159.272" width="4.95182" height="4.95182" transform="rotate(90 26.7197 159.272)" fill="#385FF6" fill-opacity="0.2"/>
<rect x="26.7197" y="191.126" width="4.95182" height="4.95182" transform="rotate(90 26.7197 191.126)" fill="#385FF6" fill-opacity="0.2"/>
<rect x="26.7197" y="222.981" width="4.95182" height="4.95182" transform="rotate(90 26.7197 222.981)" fill="#385FF6" fill-opacity="0.2"/>
<rect x="26.7197" y="254.835" width="4.95182" height="4.95182" transform="rotate(90 26.7197 254.835)" fill="#385FF6" fill-opacity="0.2"/>
<rect x="26.7197" y="286.69" width="4.95182" height="4.95182" transform="rotate(90 26.7197 286.69)" fill="#385FF6" fill-opacity="0.2"/>
<rect x="26.7197" y="318.544" width="4.95182" height="4.95182" transform="rotate(90 26.7197 318.544)" fill="#385FF6" fill-opacity="0.2"/>
<rect x="26.7197" y="350.399" width="4.95182" height="4.95182" transform="rotate(90 26.7197 350.399)" fill="#385FF6" fill-opacity="0.2"/>
<rect x="4.95239" width="4.95182" height="4.95182" transform="rotate(90 4.95239 0)" fill="#385FF6" fill-opacity="0.2"/>
<rect x="4.95239" y="31.8545" width="4.95182" height="4.95182" transform="rotate(90 4.95239 31.8545)" fill="#385FF6" fill-opacity="0.2"/>
<rect x="4.95239" y="63.709" width="4.95182" height="4.95182" transform="rotate(90 4.95239 63.709)" fill="#385FF6" fill-opacity="0.2"/>
<rect x="4.95239" y="95.5635" width="4.95182" height="4.95182" transform="rotate(90 4.95239 95.5635)" fill="#385FF6" fill-opacity="0.2"/>
<rect x="4.95239" y="127.418" width="4.95182" height="4.95182" transform="rotate(90 4.95239 127.418)" fill="#385FF6" fill-opacity="0.2"/>
<rect x="4.95239" y="159.272" width="4.95182" height="4.95182" transform="rotate(90 4.95239 159.272)" fill="#385FF6" fill-opacity="0.2"/>
<rect x="4.95239" y="191.126" width="4.95182" height="4.95182" transform="rotate(90 4.95239 191.126)" fill="#385FF6" fill-opacity="0.2"/>
<rect x="4.95239" y="222.981" width="4.95182" height="4.95182" transform="rotate(90 4.95239 222.981)" fill="#385FF6" fill-opacity="0.2"/>
<rect x="4.95239" y="254.835" width="4.95182" height="4.95182" transform="rotate(90 4.95239 254.835)" fill="#385FF6" fill-opacity="0.2"/>
<rect x="4.95239" y="286.69" width="4.95182" height="4.95182" transform="rotate(90 4.95239 286.69)" fill="#385FF6" fill-opacity="0.2"/>
<rect x="4.95239" y="318.544" width="4.95182" height="4.95182" transform="rotate(90 4.95239 318.544)" fill="#385FF6" fill-opacity="0.2"/>
<rect x="4.95239" y="350.399" width="4.95182" height="4.95182" transform="rotate(90 4.95239 350.399)" fill="#385FF6" fill-opacity="0.2"/>
</svg>
